<?xml version="1.0" encoding="UTF-8"?>
<svg width="42px" height="43px" viewBox="0 0 42 43" version="1.1" xmlns="http://www.w3.org/2000/svg" xmlns:xlink="http://www.w3.org/1999/xlink">
    <title>Group 13</title>
    <g id="Design" stroke="none" stroke-width="1" fill="none" fill-rule="evenodd">
        <g id="Home" transform="translate(-438.000000, -1170.000000)">
            <g id="pain-points" transform="translate(80.000000, 943.000000)">
                <g id="Group-13" transform="translate(358.000000, 227.958365)">
                    <rect id="Rectangle" fill="#12CD8D" transform="translate(21.000000, 21.000000) scale(1, -1) translate(-21.000000, -21.000000) " x="0" y="0" width="42" height="42" rx="4"></rect>
                    <g id="business-icon" transform="translate(9.000000, 6.000000)">
                        <polygon id="Fill-1" fill="#FFFFFF" opacity="0.6" points="5.05263158 21.25 5.05263158 30 11.5979183 27.4226804 18.3157895 30 18.3157895 21.25"></polygon>
                        <ellipse id="Oval" fill="#12CD8D" cx="12.0574163" cy="11.9318182" rx="6.54545455" ry="6.47727273"></ellipse>
                        <path d="M16.3570116,16.1851468 C15.2015197,17.3286023 13.6342063,17.9713338 12.0003737,17.9713338 C10.3665411,17.9713338 8.79922768,17.3286023 7.64373579,16.1851468 C6.4882439,15.0416913 5.83874685,13.4907041 5.83874685,11.8738906 C5.84098907,10.257077 6.49048613,8.70756906 7.64523061,7.56485317 C8.80072249,6.42139765 10.3665411,5.77866619 12.0003737,5.77644732 L12.0003737,5.77644732 C13.6342063,5.77644732 15.2015197,6.41917879 16.3570116,7.5626343 C17.5125035,8.70608981 18.1620006,10.257077 18.1620006,11.8738906 C18.1620006,13.4907041 17.5125035,15.0416913 16.3570116,16.1851468 M6.16312167,21.5274361 C6.39033353,21.5444474 6.4874965,21.5548021 6.64968391,21.5555417 C7.48154838,21.5533228 8.27977951,21.8809754 8.86649435,22.4645371 C9.69761141,23.2877363 10.8247018,23.75 12.0003737,23.75 C13.1760456,23.75 14.303136,23.2877363 15.1342531,22.4645371 C15.7209679,21.8809754 16.519199,21.5540625 17.3510635,21.557021 C17.5139983,21.5555417 17.6761857,21.5459266 17.8376257,21.5274361 C17.8376257,21.5274361 18.5648532,21.4445984 19.1343776,21.181293 C19.7039021,20.9179876 20.5903273,20.2767354 21.0604466,19.5644795 C21.5305658,18.8522235 21.7816947,18.0208885 21.7824422,17.1695836 C21.7801999,16.3463844 22.1113014,15.5564682 22.7017533,14.975865 C23.5328704,14.1534054 24,13.0380555 24,11.8746302 C24,10.7112049 23.5328704,9.595855 22.7017533,8.77339541 C22.1120488,8.19279219 21.7816947,7.40287596 21.783937,6.57967675 C21.7824422,5.41699106 21.3153125,4.3023808 20.4849429,3.47992121 C19.6538258,2.65746162 18.5274828,2.19519791 17.3525583,2.19445829 C16.5199464,2.19667715 15.7209679,1.86902463 15.1342531,1.2847233 C14.303136,0.46226371 13.1752982,0 12.0003737,0 C10.8247018,0 9.696864,0.46226371 8.86574694,1.2847233 C8.27977951,1.86828501 7.48154838,2.19519791 6.6489365,2.19297904 C5.47401202,2.19445829 4.34766902,2.656722 3.51729937,3.47844197 C2.68618231,4.30090156 2.21905266,5.41551182 2.21755785,6.5781975 C2.22054748,7.40213634 1.88944598,8.19279219 1.29824671,8.77339541 C0.467129644,9.595855 0,10.7112049 0,11.8746302 C0,13.0380555 0.467129644,14.1534054 1.29824671,14.975865 C1.88869858,15.5564682 2.21905266,16.3463844 2.21606303,17.1695836 C2.21755785,18.0208885 2.46868674,18.8529632 2.93880602,19.5652191 C3.4096727,20.2767354 4.43362088,21.0097007 4.86562237,21.181293 C5.30808757,21.357323 5.93665722,21.5111644 6.16312167,21.5274361" id="Fill-2" fill="#FFFFFF"></path>
                    </g>
                </g>
            </g>
        </g>
    </g>
</svg>