<?xml version="1.0" encoding="UTF-8"?>
<svg width="830px" height="500px" viewBox="0 0 830 500" version="1.1" xmlns="http://www.w3.org/2000/svg" xmlns:xlink="http://www.w3.org/1999/xlink">
    <title>hero art</title>
    <defs>
        <linearGradient x1="100%" y1="50%" x2="39.2162268%" y2="50%" id="linearGradient-1">
            <stop stop-color="#D161E8" offset="0%"></stop>
            <stop stop-color="#7B10A2" offset="100%"></stop>
        </linearGradient>
        <filter x="-7.6%" y="-2.5%" width="115.2%" height="104.9%" filterUnits="objectBoundingBox" id="filter-2">
            <feGaussianBlur stdDeviation="1" in="SourceGraphic"></feGaussianBlur>
        </filter>
        <polygon id="path-3" points="0 0 93.2674215 0 93.2674215 53.8472875 0 53.8472875"></polygon>
        <polygon id="path-5" points="0.209245682 0 1.02487807 0 1.02487807 21.6662766 0.209245682 21.6662766"></polygon>
        <filter x="-6.5%" y="-11.1%" width="113.0%" height="122.2%" filterUnits="objectBoundingBox" id="filter-7">
            <feGaussianBlur stdDeviation="1" in="SourceGraphic"></feGaussianBlur>
        </filter>
        <filter x="-3.0%" y="-5.2%" width="106.1%" height="110.5%" filterUnits="objectBoundingBox" id="filter-8">
            <feGaussianBlur stdDeviation="1" in="SourceGraphic"></feGaussianBlur>
        </filter>
        <filter x="-3.0%" y="-5.2%" width="106.1%" height="110.5%" filterUnits="objectBoundingBox" id="filter-9">
            <feGaussianBlur stdDeviation="1" in="SourceGraphic"></feGaussianBlur>
        </filter>
        <filter x="-2.2%" y="-3.6%" width="104.4%" height="107.2%" filterUnits="objectBoundingBox" id="filter-10">
            <feGaussianBlur stdDeviation="1" in="SourceGraphic"></feGaussianBlur>
        </filter>
        <filter x="-2.2%" y="-3.6%" width="104.4%" height="107.2%" filterUnits="objectBoundingBox" id="filter-11">
            <feGaussianBlur stdDeviation="1" in="SourceGraphic"></feGaussianBlur>
        </filter>
        <polygon id="path-12" points="0 -4.59653202e-15 27.3056388 -4.59653202e-15 27.3056388 14.4276026 0 14.4276026"></polygon>
        <polygon id="path-14" points="0 0 62.6602158 0 62.6602158 36.64605 0 36.64605"></polygon>
        <polygon id="path-16" points="0 0 54.8231403 0 54.8231403 35.3568819 0 35.3568819"></polygon>
        <polygon id="path-18" points="9.19306405e-15 0 60.9516391 0 60.9516391 32.7298276 9.19306405e-15 32.7298276"></polygon>
    </defs>
    <g id="Design" stroke="none" stroke-width="1" fill="none" fill-rule="evenodd">
        <g id="Home" transform="translate(-792.000000, -142.000000)">
            <g id="hero-art" transform="translate(793.000000, 142.000000)">
                <g id="Grid" opacity="0.6" transform="translate(0.000000, 21.000000)" stroke="#FFFFFF">
                    <line x1="793.389068" y1="219.646302" x2="379.389068" y2="459.26045" id="Stroke-1" opacity="0.600330171"></line>
                    <line x1="758.778135" y1="199.678457" x2="344.778135" y2="439.292605" id="Stroke-2" opacity="0.600330171"></line>
                    <line x1="724.167203" y1="179.710611" x2="310.167203" y2="419.324759" id="Stroke-3" opacity="0.600330171"></line>
                    <line x1="689.55627" y1="159.742765" x2="275.55627" y2="399.356913" id="Stroke-4" opacity="0.600330171"></line>
                    <line x1="654.945338" y1="139.77492" x2="240.945338" y2="379.389068" id="Stroke-5" opacity="0.600330171"></line>
                    <line x1="620.334405" y1="119.807074" x2="206.334405" y2="359.421222" id="Stroke-6" opacity="0.600330171"></line>
                    <line x1="587.054662" y1="99.8392283" x2="171.723473" y2="339.453376" id="Stroke-7" opacity="0.600330171"></line>
                    <line x1="552.44373" y1="79.8713826" x2="138.44373" y2="319.485531" id="Stroke-8" opacity="0.600330171"></line>
                    <line x1="517.832797" y1="59.903537" x2="103.832797" y2="299.517685" id="Stroke-9" opacity="0.600330171"></line>
                    <line x1="483.221865" y1="39.9356913" x2="69.221865" y2="279.549839" id="Stroke-10" opacity="0.600330171"></line>
                    <line x1="448.610932" y1="19.9678457" x2="34.6109325" y2="259.581994" id="Stroke-11" opacity="0.600330171"></line>
                    <line x1="379.389068" y1="19.9678457" x2="793.389068" y2="259.581994" id="Stroke-12" opacity="0.600330171"></line>
                    <line x1="344.778135" y1="39.9356913" x2="758.778135" y2="279.549839" id="Stroke-13" opacity="0.600330171"></line>
                    <line x1="310.167203" y1="59.903537" x2="724.167203" y2="299.517685" id="Stroke-14" opacity="0.600330171"></line>
                    <line x1="275.55627" y1="79.8713826" x2="689.55627" y2="319.485531" id="Stroke-15" opacity="0.600330171"></line>
                    <line x1="240.945338" y1="99.8392283" x2="654.945338" y2="339.453376" id="Stroke-16" opacity="0.600330171"></line>
                    <line x1="206.334405" y1="119.807074" x2="620.334405" y2="359.421222" id="Stroke-17" opacity="0.600330171"></line>
                    <line x1="171.723473" y1="139.77492" x2="585.723473" y2="379.389068" id="Stroke-18" opacity="0.600330171"></line>
                    <line x1="138.44373" y1="159.742765" x2="552.44373" y2="399.356913" id="Stroke-19" opacity="0.600330171"></line>
                    <line x1="103.832797" y1="179.710611" x2="517.832797" y2="417.993569" id="Stroke-20" opacity="0.600330171"></line>
                    <line x1="69.221865" y1="199.678457" x2="483.221865" y2="439.292605" id="Stroke-21" opacity="0.600330171"></line>
                    <line x1="34.6109325" y1="218.315113" x2="448.610932" y2="457.92926" id="Stroke-22" opacity="0.600330171"></line>
                    <polygon id="Stroke-23" opacity="0.600330171" points="0 239.022327 413.616152 477.897106 828 238.874779 413.871607 0"></polygon>
                </g>
                <g id="Group-17" transform="translate(296.000000, 130.999359)">
                    <path d="M98.8758858,70.0006412 L0,71.7723025 L0,91.7295853 C0,106.238448 22.1610004,118.000641 49.5001966,118.000641 C76.8380822,118.000641 99.0003932,106.238448 99.0003932,91.7295853 L98.8758858,70.0006412 Z" id="Fill-1" fill="url(#linearGradient-1)"></path>
                    <path d="M0,72.5006412 C0,58.4170396 22.162223,47.0006412 49.5,47.0006412 C76.837777,47.0006412 99,58.4170396 99,72.5006412 C99,86.5842427 76.837777,98.0006412 49.5,98.0006412 C22.162223,98.0006412 0,86.5842427 0,72.5006412" id="Fill-4" fill="#FB8CFF"></path>
                    <path d="M98.8758858,47.0006412 L0,48.7723025 L0,68.7282642 C0,83.2384481 22.1610004,95.0006412 49.5001966,95.0006412 C76.8380822,95.0006412 99.0003932,83.2384481 99.0003932,68.7282642 L98.8758858,47.0006412 Z" id="Fill-6" fill="url(#linearGradient-1)"></path>
                    <path d="M0,49.5006412 C0,35.4170396 22.162223,24.0006412 49.5,24.0006412 C76.837777,24.0006412 99,35.4170396 99,49.5006412 C99,63.5842427 76.837777,75.0006412 49.5,75.0006412 C22.162223,75.0006412 0,63.5842427 0,49.5006412" id="Fill-9" fill="#FB8CFF"></path>
                    <path d="M98.8758858,24.0006412 L0,25.7723025 L0,45.7295853 C0,60.2384481 22.1610004,72.0006412 49.5001966,72.0006412 C76.8380822,72.0006412 99.0003932,60.2384481 99.0003932,45.7295853 L98.8758858,24.0006412 Z" id="Fill-11" fill="url(#linearGradient-1)"></path>
                    <path d="M0,25.5003206 C0,11.416542 22.162223,0 49.5,0 C76.837777,0 99,11.416542 99,25.5003206 C99,39.5840992 76.837777,51.0006412 49.5,51.0006412 C22.162223,51.0006412 0,39.5840992 0,25.5003206" id="Fill-14" fill="#FB8CFF"></path>
                </g>
                <path d="M384.857143,244 L402,245.714286 L395.259884,249.758548 C419.274208,267.054956 425.228598,290.121576 416.929389,316.204805 C410.968152,334.940122 397.517214,354.33779 385.028047,366.0923 L381,366 C393.144022,354.570332 408.28008,333.494007 414.070611,315.295195 C422.11703,290.006451 416.228877,268.023981 392.450895,251.444775 L384.857143,256 L384.857143,244 Z" id="Combined-Shape-Copy-4" fill="#150674" opacity="0.504952567" filter="url(#filter-2)"></path>
                <g id="Group-40" transform="translate(161.000000, 255.999877)">
                    <polygon id="Fill-1" fill="#0F8ADA" points="9.84084108 10.5360847 9.84084108 24.6643334 17.1135323 14.4038285 13.4765696 10.5360847"></polygon>
                    <polygon id="Fill-2" fill="#70BFFF" points="83.8456888 10.5360847 83.8456888 24.6643334 76.5729976 14.4038285 80.2099603 10.5360847"></polygon>
                    <g id="Group-39">
                        <g id="Group-5" transform="translate(0.209246, 18.149394)">
                            <mask id="mask-4" fill="white">
                                <use xlink:href="#path-3"></use>
                            </mask>
                            <g id="Clip-4"></g>
                            <path d="M79.6161616,7.88111427 C81.0773641,8.72525491 82.4089837,9.61505814 83.6357027,10.5357145 L79.0571036,14.9341315 C78.5474104,15.4240786 78.532601,16.0337358 79.0151433,16.5323218 C80.4208103,17.9774807 81.504371,19.496687 82.2386746,21.0492147 C82.5138842,21.630487 83.339513,22.0673668 84.3638357,22.1858427 C84.397157,22.189545 84.4317125,22.1932474 84.4650338,22.1957156 L92.8694166,23.4051569 C93.4000898,25.7401191 93.4000898,28.1071684 92.8694166,30.4421305 L84.556359,31.6379965 C84.4687362,31.6441671 84.3811134,31.6528059 84.2934906,31.6639131 C83.2987869,31.7934961 82.5064794,32.2303759 82.2386746,32.7980728 C81.5068392,34.3468981 80.4232785,35.8673386 79.0163775,37.3149657 C78.532601,37.8135517 78.5486446,38.4219747 79.0583377,38.9106877 L83.6369368,43.3103389 C82.4089837,44.2322293 81.0773641,45.1220326 79.6161616,45.9661732 C78.1549591,46.8090797 76.6135385,47.5779388 75.0178165,48.2863259 L67.3983365,45.6428328 C66.5504935,45.3491113 65.4953177,45.3392383 64.6326652,45.6193844 C62.1249257,46.4314379 59.4925397,47.0571386 56.8070865,47.480443 C55.8234898,47.6347085 55.0756108,48.0950367 54.8522344,48.6713725 C54.8398932,48.7022256 54.8300202,48.7343128 54.8213813,48.7664 L52.7270733,53.6177405 C48.6828498,53.9238031 44.5843248,53.9238031 40.5401013,53.6177405 L38.4680075,48.8169991 C38.4593687,48.7787412 38.4482616,48.7392493 38.4359203,48.7022256 C38.2310558,48.1110803 37.465899,47.6384109 36.4588541,47.480443 C33.7783373,47.0583727 31.1459513,46.432672 28.6320412,45.6193844 C27.7706229,45.3404725 26.7166812,45.3491113 25.867604,45.6440669 L18.2493581,48.2863259 C16.6536361,47.5779388 15.1122156,46.8103138 13.651013,45.9661732 C12.1898105,45.1220326 10.858191,44.2322293 9.63023786,43.3103389 L14.208837,38.9119218 C14.7185301,38.4219747 14.7333396,37.8135517 14.2507972,37.3161998 C12.8438961,35.8661044 11.7603355,34.345664 11.0285001,32.7980728 C10.7606952,32.2279076 9.96715364,31.7910278 8.96751341,31.6626789 C8.88482712,31.6528059 8.79967258,31.6441671 8.71822041,31.6379965 L0.397758085,30.4408964 C-0.132915128,28.1059343 -0.132915128,25.7401191 0.397758085,23.4051569 L8.71575216,22.2080569 C8.8009067,22.2018863 8.88359299,22.1944815 8.96751341,22.1833744 C9.96962189,22.0537914 10.7631635,21.6181457 11.0285001,21.0492147 C11.7615696,19.4991553 12.8451302,17.9787148 14.2520313,16.5310876 C14.7358078,16.0337358 14.7197642,15.4240786 14.2100711,14.9353656 L9.63147198,10.5357145 C10.858191,9.61505814 12.1898105,8.72525491 13.651013,7.88111427 C15.1134497,7.03697362 16.6548702,6.26811453 18.2505923,5.55972749 L25.8700723,8.20322057 C26.7166812,8.49694202 27.771857,8.50681501 28.6345095,8.22790304 C31.142249,7.41584962 33.7746349,6.79014887 36.4588541,6.36684443 C37.4461531,6.21257896 38.1915638,5.74854843 38.4149402,5.17344676 C38.4260473,5.14259367 38.4359203,5.11420882 38.4445592,5.08335573 L40.5401013,0.229547018 C44.5843248,-0.0765156725 48.6828498,-0.0765156725 52.7258392,0.229547018 L54.8004012,5.03275665 C54.8115084,5.07965336 54.8263178,5.12901831 54.8435956,5.17591501 C55.0645037,5.75348492 55.8197875,6.21134483 56.8070865,6.36684443 C59.4974762,6.79014887 62.1286281,7.41584962 64.631431,8.22666892 C65.4940835,8.50558089 66.5492593,8.49694202 67.3983365,8.20322057 L75.0165824,5.55972749 C76.6123044,6.26811453 78.153725,7.03697362 79.6161616,7.88111427 M35.8849865,20.7160013 C29.9550219,24.1394606 29.9550219,29.7078269 35.8837524,33.1312862 C41.8112488,36.5535114 51.4583941,36.5535114 57.3871246,33.1300521 C63.314621,29.7078269 63.314621,24.1382264 57.3858905,20.7160013 C51.4583941,17.2937761 41.8124829,17.2937761 35.8849865,20.7160013" id="Fill-3" fill="#B0B0B0" mask="url(#mask-4)"></path>
                        </g>
                        <path d="M40.7498406,53.6179873 L40.7498406,71.7670111 C40.7498406,71.7670111 49.0530252,72.2915137 52.9355785,71.7670111 L52.9355785,53.6179873 C52.9355785,53.6179873 44.8927941,53.845066 40.7498406,53.6179873" id="Fill-6" fill="#3BACF5"></path>
                        <g id="Group-10" transform="translate(0.000000, 26.923273)">
                            <mask id="mask-6" fill="white">
                                <use xlink:href="#path-5"></use>
                            </mask>
                            <g id="Clip-9"></g>
                            <path d="M0.606510117,3.51725269 L0.606510117,21.6662766 C0.606510117,21.6662766 0.209122269,20.0039119 0.209122269,17.7466995 L0.209122269,0 L0.606510117,3.51725269 Z" id="Fill-8" fill="#231F20" mask="url(#mask-6)"></path>
                        </g>
                        <path d="M38.6770064,48.83403 C38.6696016,48.7957721 38.6572604,48.7575143 38.6449192,48.7192565 C38.4400546,48.1281112 37.6748979,47.6554418 36.6678529,47.497474 C33.9873361,47.0754036 31.3549502,46.4497029 28.8422742,45.6364153 C27.9808558,45.3575034 26.92568,45.3661422 26.0766029,45.6610978 L18.458357,48.3045909 L18.458357,66.4536148 L26.0766029,63.8101217 C26.92568,63.5164002 27.9808558,63.5065272 28.8422742,63.7866733 C31.3549502,64.5987268 33.9873361,65.2244275 36.6678529,65.6464978 C37.6748979,65.8044657 38.4400546,66.2771351 38.6449192,66.8682803 C38.6572604,66.9065382 38.6696016,66.944796 38.6770064,66.9830538 L40.7503343,71.7850294 L40.7503343,53.6347714 L38.6770064,48.83403 Z" id="Fill-11" fill="#3BACF5"></path>
                        <path d="M13.2972515,36.0186421 C13.6588497,35.5743576 14.0414281,35.1337754 14.4610302,34.700598 L17.5845974,43.3024405 L17.0243052,47.6465561 L11.9175011,52.2300917 C11.9175011,52.2300917 11.3041416,50.21847 9.84047084,49.9728794 C8.37556595,49.7285229 0.606756942,48.6104067 0.606756942,48.6104067 L0.606756942,30.4613829 L8.92721927,31.6572488 C9.00990556,31.6646535 9.09382597,31.6720583 9.17651226,31.6831654 C10.1761525,31.8115143 10.9709282,32.2471599 11.2374989,32.8173251 C11.7508944,33.903354 12.4469402,34.9745734 13.2972515,36.0186421 C13.2972515,36.0186421 13.6588497,36.4629267 13.2972515,36.0186421" id="Fill-13" fill="#0F8ADA"></path>
                        <path d="M9.83985378,43.3105857 L9.83985378,61.4596096 C9.83985378,61.4596096 14.8800152,65.2199847 18.4589741,66.4355965 L18.4589741,48.2865727 C18.4589741,48.2865727 12.6215687,45.1309182 9.83985378,43.3105857" id="Fill-15" fill="#0F8ADA"></path>
                        <path d="M93.0791559,30.4405262 L93.0791559,48.5895501 C93.0791559,48.5895501 93.4765437,46.9271854 93.4765437,44.669973 L93.4765437,26.9232735 L93.0791559,30.4405262 Z" id="Fill-17" fill="#7DC7D8"></path>
                        <path d="M55.0086596,48.83403 C55.0160644,48.7957721 55.0284056,48.7575143 55.0407468,48.7192565 C55.2456114,48.1281112 56.0107681,47.6554418 57.0178131,47.497474 C59.6983299,47.0754036 62.3307158,46.4497029 64.8433918,45.6364153 C65.7048102,45.3575034 66.759986,45.3661422 67.6090631,45.6610978 L75.227309,48.3045909 L75.227309,66.4536148 L67.6090631,63.8101217 C66.759986,63.5164002 65.7048102,63.5065272 64.8433918,63.7866733 C62.3307158,64.5987268 59.6983299,65.2244275 57.0178131,65.6464978 C56.0107681,65.8044657 55.2456114,66.2771351 55.0407468,66.8682803 C55.0284056,66.9065382 55.0160644,66.944796 55.0086596,66.9830538 L52.9353317,71.7850294 L52.9353317,53.6347714 L55.0086596,48.83403 Z" id="Fill-20" fill="#3BACF5"></path>
                        <path d="M80.3884145,36.0186421 C80.0268163,35.5743576 79.6442379,35.1337754 79.2246359,34.700598 L76.1010686,43.3024405 L76.6613608,47.6465561 L81.7681649,52.2300917 C81.7681649,52.2300917 82.3815244,50.21847 83.8451952,49.9728794 C85.3101001,49.7285229 93.0789091,48.6104067 93.0789091,48.6104067 L93.0789091,30.4613829 L84.7584467,31.6572488 C84.6757605,31.6646535 84.59184,31.6720583 84.5091538,31.6831654 C83.5095135,31.8115143 82.7147378,32.2471599 82.4481671,32.8173251 C81.9347716,33.903354 81.2387258,34.9745734 80.3884145,36.0186421 C80.3884145,36.0186421 80.0268163,36.4629267 80.3884145,36.0186421" id="Fill-22" fill="#70BFFF"></path>
                        <path d="M83.8456888,43.3105857 L83.8456888,61.4596096 C83.8456888,61.4596096 78.8055274,65.2199847 75.2265686,66.4355965 L75.2265686,48.2865727 C75.2265686,48.2865727 81.0639739,45.1309182 83.8456888,43.3105857" id="Fill-24" fill="#70BFFF"></path>
                        <path d="M79.8254073,7.88111427 C81.2866098,8.72525491 82.6182293,9.61505814 83.8449483,10.5357145 L79.2663492,14.9341315 C78.7566561,15.4240786 78.7418466,16.0337358 79.224389,16.5323218 C80.630056,17.9774807 81.7136166,19.496687 82.4479203,21.0492147 C82.7231299,21.630487 83.5487586,22.0673668 84.5730814,22.1858427 C84.6064027,22.189545 84.6409582,22.1932474 84.6742795,22.1957156 L93.0786622,23.4051569 C93.6093355,25.7401191 93.6093355,28.1071684 93.0786622,30.4421305 L84.7656047,31.6379965 C84.6779819,31.6441671 84.5903591,31.6528059 84.5027363,31.6639131 C83.5080326,31.7934961 82.7157251,32.2303759 82.4479203,32.7980728 C81.7160849,34.3468981 80.6325242,35.8673386 79.2256232,37.3149657 C78.7418466,37.8135517 78.7578903,38.4219747 79.2675834,38.9106877 L83.8461825,43.3103389 C82.6182293,44.2322293 81.2866098,45.1220326 79.8254073,45.9661732 C78.3642048,46.8090797 76.8227842,47.5779388 75.2270622,48.2863259 L67.6075822,45.6428328 C66.7597392,45.3491113 65.7045633,45.3392383 64.8419108,45.6193844 C62.3341714,46.4314379 59.7017854,47.0571386 57.0163321,47.480443 C56.0327355,47.6347085 55.2848565,48.0950367 55.0614801,48.6713725 C55.0491389,48.7022256 55.0392659,48.7343128 55.030627,48.7664 L52.936319,53.6177405 C48.8920955,53.9238031 44.7935705,53.9238031 40.749347,53.6177405 L38.6772532,48.8169991 C38.6686143,48.7787412 38.6575072,48.7392493 38.645166,48.7022256 C38.4403015,48.1110803 37.6751447,47.6384109 36.6680997,47.480443 C33.987583,47.0583727 31.355197,46.432672 28.8412869,45.6193844 C27.9798685,45.3404725 26.9259269,45.3491113 26.0768497,45.6440669 L18.4586038,48.2863259 C16.8628818,47.5779388 15.3214612,46.8103138 13.8602587,45.9661732 C12.3990562,45.1220326 11.0674367,44.2322293 9.83948354,43.3103389 L14.4180827,38.9119218 C14.9277758,38.4219747 14.9425852,37.8135517 14.4600429,37.3161998 C13.0531418,35.8661044 11.9695811,34.345664 11.2377458,32.7980728 C10.9699409,32.2279076 10.1763993,31.7910278 9.17675909,31.6626789 C9.0940728,31.6528059 9.00891826,31.6441671 8.92746609,31.6379965 L0.607003767,30.4408964 C0.076330554,28.1059343 0.076330554,25.7401191 0.607003767,23.4051569 L8.92499784,22.2080569 C9.01015238,22.2018863 9.09283867,22.1944815 9.17675909,22.1833744 C10.1788676,22.0537914 10.9724091,21.6181457 11.2377458,21.0492147 C11.9708153,19.4991553 13.0543759,17.9787148 14.461277,16.5310876 C14.9450535,16.0337358 14.9290099,15.4240786 14.4193168,14.9353656 L9.84071767,10.5357145 C11.0674367,9.61505814 12.3990562,8.72525491 13.8602587,7.88111427 C15.3226954,7.03697362 16.8641159,6.26811453 18.4598379,5.55972749 L26.079318,8.20322057 C26.9259269,8.49694202 27.9811027,8.50681501 28.8437552,8.22790304 C31.3514946,7.41584962 33.9838806,6.79014887 36.6680997,6.36684443 C37.6553987,6.21257896 38.4008095,5.74854843 38.6241859,5.17344676 C38.635293,5.14259367 38.645166,5.11420882 38.6538049,5.08335573 L40.749347,0.229547018 C44.7935705,-0.0765156725 48.8920955,-0.0765156725 52.9350849,0.229547018 L55.0096469,5.03275665 C55.020754,5.07965336 55.0355635,5.12901831 55.0528413,5.17591501 C55.2737494,5.75348492 56.0290331,6.21134483 57.0163321,6.36684443 C59.7067219,6.79014887 62.3378738,7.41584962 64.8406767,8.22666892 C65.7033292,8.50558089 66.758505,8.49694202 67.6075822,8.20322057 L75.2258281,5.55972749 C76.8215501,6.26811453 78.3629707,7.03697362 79.8254073,7.88111427 M36.0942322,20.7160013 C30.1642676,24.1394606 30.1642676,29.7078269 36.0929981,33.1312862 C42.0204945,36.5535114 51.6676398,36.5535114 57.5963703,33.1300521 C63.5238667,29.7078269 63.5238667,24.1382264 57.5951362,20.7160013 C51.6676398,17.2937761 42.0217286,17.2937761 36.0942322,20.7160013" id="Fill-26" fill="#FFFFFF"></path>
                        <path d="M36.0936151,20.7157544 C30.1648846,24.1392137 30.1636505,29.7075801 36.092381,33.1310394 C42.0211115,36.5532645 51.6670227,36.5532645 57.5957532,33.1298053 C63.5232496,29.7075801 63.5232496,24.1379796 57.5957532,20.7157544 C51.6682569,17.2935293 42.0211115,17.2935293 36.0936151,20.7157544" id="Fill-29" fill="#0F8ADA"></path>
                        <path d="M67.6086929,45.6607276 C67.221178,45.5262081 66.7892347,45.4583313 66.353589,45.4435218 L66.353589,63.5937798 C66.7892347,63.6085893 67.221178,63.675232 67.6086929,63.8097514 L75.2269388,66.4532445 L75.2269388,48.3042206 L67.6086929,45.6607276 Z" id="Fill-31" fill="#229DED"></path>
                        <path d="M55.3147223,48.2841044 C55.1900758,48.4186239 55.0938142,48.5642505 55.0407468,48.718516 C55.0284056,48.7567738 55.0160644,48.7950317 55.0086596,48.8332895 L52.9353317,53.635265 L52.9353317,71.7842889 L55.0086596,66.9835475 C55.0160644,66.9452897 55.0284056,66.9057977 55.0407468,66.868774 C55.0938142,66.7132744 55.1900758,66.5688819 55.3147223,66.4331283 L55.3147223,48.2841044 Z" id="Fill-33" fill="#70BFFF"></path>
                        <path d="M38.6770064,48.8339066 C38.6696016,48.7956487 38.6572604,48.7573909 38.6449192,48.7191331 C38.4400546,48.1279878 37.6748979,47.6553184 36.6678529,47.4973505 C33.9873361,47.0752802 31.3549502,46.4495795 28.8422742,45.6362919 C28.4596959,45.5128795 28.0388597,45.4548757 27.6155552,45.4437686 L27.6155552,63.5940266 C28.0388597,63.6038996 28.4596959,63.6619034 28.8422742,63.7865499 C31.3549502,64.5986033 33.9873361,65.2243041 36.6678529,65.6463744 C37.6748979,65.8043422 38.4400546,66.2770116 38.6449192,66.8681569 C38.6572604,66.9064148 38.6696016,66.9446726 38.6770064,66.9829304 L40.7503343,71.7849059 L40.7503343,53.6346479 L38.6770064,48.8339066 Z" id="Fill-35" fill="#229DED"></path>
                        <path d="M38.6770064,48.8339066 C38.6696016,48.7956487 38.6572604,48.7573909 38.6449192,48.7191331 C38.5523599,48.4500941 38.3314517,48.2119082 38.0377303,48.010746 L38.0377303,66.161004 C38.3314517,66.3621662 38.5523599,66.6003521 38.6449192,66.8681569 C38.6572604,66.9064148 38.6696016,66.9446726 38.6770064,66.9829304 L40.7503343,71.7849059 L40.7503343,53.6346479 L38.6770064,48.8339066 Z" id="Fill-37" fill="#0F8ADA"></path>
                    </g>
                </g>
                <path d="M245,309 L279.020122,327.711 L285.395161,324 L288.395161,336 L270.104839,332.903226 L276.537122,329.157 L242.277122,310.314324 L245,309 Z" id="Combined-Shape" fill="#FFFFFF" fill-rule="nonzero"></path>
                <path d="M245,329 L279.020122,347.711 L285.395161,344 L288.395161,356 L270.104839,352.903226 L276.537122,349.157 L242.277122,330.314324 L245,329 Z" id="Combined-Shape-Copy-3" fill="#150674" fill-rule="nonzero" opacity="0.504952567" filter="url(#filter-7)"></path>
                <g id="Group-11" transform="translate(294.000000, 341.000000)">
                    <polygon id="Fill-1" fill="#231F20" points="0 33.6150695 14.495073 41.9839664 24.310019 36.3176058 99.1753996 50.7934665 114.814247 41.7636649 101.081264 33.835371 95.1369649 37.2679764 18.8767682 22.7165472"></polygon>
                    <polygon id="Fill-2" fill="#231F20" points="53.7834195 76.9996158 72.0927831 66.4289842 61.0303156 49.4708887 34.7106854 44.8458372"></polygon>
                    <polygon id="Fill-3" fill="#905000" points="0 33.6150695 14.495073 41.9839664 14.495073 19.2685719 0 10.899675"></polygon>
                    <polygon id="Fill-4" fill="#FBD09D" points="24.3101471 13.6009305 24.3101471 36.3176058 14.4952011 41.9839664 14.4952011 19.2672911"></polygon>
                    <polygon id="Fill-5" fill="#905000" points="24.3101471 13.6009305 99.1742468 28.0767912 99.1742468 50.7921856 24.3101471 36.3176058"></polygon>
                    <polygon id="Fill-6" fill="#FF9638" points="18.8772805 0 0.000512329168 10.8998031 14.4943045 19.2687 24.3105314 13.6010586 99.1746311 28.0756384 114.813479 19.0483985 101.081776 11.1188238 95.1374772 14.55271"></polygon>
                    <polygon id="Fill-7" fill="#FF9638" points="53.7830353 54.2835808 72.0923989 43.7129493 61.0299313 26.7548538 34.711582 22.1310831"></polygon>
                    <polygon id="Fill-8" fill="#FBD09D" points="99.1748872 28.0761507 99.1748872 50.7928261 114.813735 41.7643053 114.813735 19.04763"></polygon>
                    <polygon id="Fill-9" fill="#905000" points="34.7113258 44.8462214 53.7840599 77 53.7840599 54.2833247 34.7113258 22.1308269"></polygon>
                    <polygon id="Fill-10" fill="#FBD09D" points="53.7834195 54.2837089 53.7834195 76.9991034 72.0927831 66.4284719 72.0927831 43.7130774"></polygon>
                </g>
                <path d="M384.857143,217 L402,218.714286 L395.259884,222.758548 C419.274208,240.054956 425.228598,263.121576 416.929389,289.204805 C410.968152,307.940122 397.517214,327.33779 385.028047,339.0923 L381,339 C393.144022,327.570332 408.28008,306.494007 414.070611,288.295195 C422.11703,263.006451 416.228877,241.023981 392.450895,224.444775 L384.857143,229 L384.857143,217 Z" id="Combined-Shape" fill="#FFFFFF"></path>
                <path d="M528,292 L525.764706,303 L518.625,298.95 L431.752136,349.297803 L429,348 L515.617,297.243 L509.858824,293.976471 L528,292 Z" id="arrow" fill="#150674" fill-rule="nonzero" opacity="0.504952567" filter="url(#filter-8)"></path>
                <path d="M508,142 L505.764706,153 L498.625,148.95 L411.752136,199.297803 L409,198 L495.617,147.243 L489.858824,143.976471 L508,142 Z" id="arrow-copy-2" fill="#150674" fill-rule="nonzero" opacity="0.504952567" filter="url(#filter-9)"></path>
                <path d="M508,120 L505.764706,131 L498.625,126.95 L411.752136,177.297803 L409,176 L495.617,125.243 L489.858824,121.976471 L508,120 Z" id="arrow-copy-3" fill="#FFFFFF" fill-rule="nonzero"></path>
                <polygon id="Path-14" fill="#150674" opacity="0.495954241" filter="url(#filter-10)" points="166 366 97 409 166 449 234 408"></polygon>
                <polygon id="Path-14-Copy" fill="#150674" opacity="0.495954241" filter="url(#filter-11)" points="557 384 488 427 557 467 625 426"></polygon>
                <g id="Group-4-Copy-3" transform="translate(97.000000, 332.734000)">
                    <polygon id="Fill-1" fill="#FFFFFF" points="68.8758404 0 0.435882797 42.9299911 0.435882797 52.5595549 69.0024931 92 137.317117 52.5595549 137.317117 42.1173029"></polygon>
                    <polygon id="Path-6" fill="#70BFFF" points="0 52.266 0 43.266 69 83.266 69 92.266"></polygon>
                    <polygon id="Path-7" fill="#CDE4F3" points="69 92.266 69 83.266 137 42.266 137 52.266"></polygon>
                </g>
                <g id="block" transform="translate(517.000000, 179.000000)">
                    <g id="Group-4" transform="translate(0.000000, 42.000000)">
                        <polygon id="Fill-1" fill="#FFFFFF" points="34.2247729 0 0 19.9261482 0 59.2779862 34.2879887 79 68.4482287 59.2779862 68.4482287 19.5191965"></polygon>
                        <polygon id="Fill-2" fill="#70BFFF" points="0.000526798366 59.2778545 34.2871985 78.9998683 34.2871985 38.9144636 0.000526798366 19.5533067"></polygon>
                        <polygon id="Fill-3" fill="#CDE4F3" points="34.2875936 38.9144636 34.2875936 78.9998683 68.4478336 59.2778545 68.4478336 19.5190648"></polygon>
                    </g>
                    <g id="Group-4-Copy-4">
                        <polygon id="Fill-1" fill="#FFFFFF" points="34.2247729 0 0 19.9261482 0 59.2779862 34.2879887 79 68.4482287 59.2779862 68.4482287 19.5191965"></polygon>
                        <polygon id="Fill-2" fill="#70BFFF" points="0.000526798366 59.2778545 34.2871985 78.9998683 34.2871985 38.9144636 0.000526798366 19.5533067"></polygon>
                        <polygon id="Fill-3" fill="#CDE4F3" points="34.2875936 38.9144636 34.2875936 78.9998683 68.4478336 59.2778545 68.4478336 19.5190648"></polygon>
                    </g>
                </g>
                <g id="block-copy" transform="translate(414.000000, 0.000000)">
                    <g id="Group-4" transform="translate(0.000000, 42.000000)">
                        <polygon id="Fill-1" fill="#FFFFFF" points="34.2247729 0 0 19.9261482 0 59.2779862 34.2879887 79 68.4482287 59.2779862 68.4482287 19.5191965"></polygon>
                        <polygon id="Fill-2" fill="#70BFFF" points="0.000526798366 59.2778545 34.2871985 78.9998683 34.2871985 38.9144636 0.000526798366 19.5533067"></polygon>
                        <polygon id="Fill-3" fill="#CDE4F3" points="34.2875936 38.9144636 34.2875936 78.9998683 68.4478336 59.2778545 68.4478336 19.5190648"></polygon>
                    </g>
                    <g id="Group-4-Copy-4">
                        <polygon id="Fill-1" fill="#FFFFFF" points="34.2247729 0 0 19.9261482 0 59.2779862 34.2879887 79 68.4482287 59.2779862 68.4482287 19.5191965"></polygon>
                        <polygon id="Fill-2" fill="#70BFFF" points="0.000526798366 59.2778545 34.2871985 78.9998683 34.2871985 38.9144636 0.000526798366 19.5533067"></polygon>
                        <polygon id="Fill-3" fill="#CDE4F3" points="34.2875936 38.9144636 34.2875936 78.9998683 68.4478336 59.2778545 68.4478336 19.5190648"></polygon>
                    </g>
                </g>
                <g id="block-copy-2" transform="translate(173.000000, 99.000000)">
                    <g id="Group-4" transform="translate(0.000000, 42.000000)">
                        <polygon id="Fill-1" fill="#FFFFFF" points="34.2247729 0 0 19.9261482 0 59.2779862 34.2879887 79 68.4482287 59.2779862 68.4482287 19.5191965"></polygon>
                        <polygon id="Fill-2" fill="#70BFFF" points="0.000526798366 59.2778545 34.2871985 78.9998683 34.2871985 38.9144636 0.000526798366 19.5533067"></polygon>
                        <polygon id="Fill-3" fill="#CDE4F3" points="34.2875936 38.9144636 34.2875936 78.9998683 68.4478336 59.2778545 68.4478336 19.5190648"></polygon>
                    </g>
                    <g id="Group-4-Copy-4">
                        <polygon id="Fill-1" fill="#FFFFFF" points="34.2247729 0 0 19.9261482 0 59.2779862 34.2879887 79 68.4482287 59.2779862 68.4482287 19.5191965"></polygon>
                        <polygon id="Fill-2" fill="#70BFFF" points="0.000526798366 59.2778545 34.2871985 78.9998683 34.2871985 38.9144636 0.000526798366 19.5533067"></polygon>
                        <polygon id="Fill-3" fill="#CDE4F3" points="34.2875936 38.9144636 34.2875936 78.9998683 68.4478336 59.2778545 68.4478336 19.5190648"></polygon>
                    </g>
                </g>
                <path d="M528,270 L525.764706,281 L518.625,276.95 L431.752136,327.297803 L429,326 L515.617,275.243 L509.858824,271.976471 L528,270 Z" id="arrow-copy" fill="#FFFFFF" fill-rule="nonzero"></path>
                <g id="Group-4-Copy-2" transform="translate(488.000000, 342.734000)">
                    <polygon id="Fill-1" fill="#FFFFFF" points="68.8758404 0 0.435882797 42.9299911 0.435882797 52.5595549 69.0024931 92 138.317117 51.5595549 138.317117 41.1173029"></polygon>
                    <polygon id="Path-6" fill="#70BFFF" points="0 52.266 0 43.266 69 83.266 69 92.266"></polygon>
                    <polygon id="Path-7" fill="#CDE4F3" points="69 92.266 69 83.266 138 41.266 138 51.266"></polygon>
                </g>
                <g id="aws-logo" transform="translate(517.000000, 354.000000)">
                    <path d="M34.9422809,34.3833555 C34.6078313,34.576133 34.3290156,34.6731687 34.0501998,34.6835192 C33.7901442,34.704867 33.4000609,34.6298261 32.9355835,34.4907417 L14.2083489,28.7197078 C13.7251113,28.5696259 13.4275353,28.4622398 13.2975075,28.3871989 C13.0005784,28.2157692 12.9818182,28.0333422 13.2793942,27.8619126 L15.0997831,26.8106929 C15.4529929,26.6069181 15.749922,26.4995319 16.0099775,26.4995319 C16.27068,26.4781841 16.6420031,26.5635755 17.1064805,26.7033068 L32.52674,32.0021005 L23.1259256,23.2274896 C22.8471099,22.9596712 22.7170821,22.7558963 22.7546025,22.6058145 C22.7914761,22.4550858 22.9771376,22.2623083 23.3115872,22.0695308 L24.7981734,21.2110887 C25.1513832,21.0073138 25.4483123,20.8999277 25.7271281,20.8895772 C25.9871837,20.8675825 26.377267,20.9426234 26.8048708,21.1037026 L42.1882568,26.5959207 L32.9543438,17.5534914 C32.6942882,17.2746756 32.5830207,17.0599033 32.601134,16.920172 C32.6386544,16.7700902 32.8055558,16.5876632 33.1400053,16.3948857 L34.8678869,15.3973591 C35.1654629,15.2259294 35.4811523,15.2149321 35.7968416,15.3973591 C35.8899958,15.4510522 35.9643898,15.5150957 36.0568971,15.5901366 C36.1500514,15.6651775 36.2613189,15.7725636 36.3913467,15.9336428 L46.2753986,26.810046 C46.5354542,27.0895087 46.6473686,27.3036341 46.6098482,27.4537159 C46.5729746,27.6037977 46.4054264,27.7862247 46.0897371,27.9686518 L44.4918833,28.8911374 C44.1386735,29.0949123 43.8417444,29.2022984 43.5629286,29.2132958 C43.2841128,29.2236463 42.9127897,29.1596027 42.4670726,28.9881731 L27.6037977,23.732075 L36.707036,32.2919137 C36.9858518,32.5597321 37.1158796,32.763507 37.0977663,32.9245862 C37.0790061,33.0856654 36.8745843,33.2680924 36.5401347,33.4608699 L34.9422809,34.3833555 Z" id="Fill-1" fill="#0F1A28"></path>
                    <path d="M77.971384,24.6895582 L77.971384,17.2197534 L71.8820731,10.8328665 L64.2259599,14.7860992 L63.1268694,16.0934929 L63.1268694,24.5252445 C62.9780814,25.0621751 63.5913467,25.3086457 64.1114578,24.9224438 C65.8580996,23.6351041 69.7220594,20.8036036 71.5055748,20.9323376 C73.2709768,21.0500742 75.7602649,24.3965105 76.8567678,25.8876251 C77.1912173,26.3385174 77.89699,26.1884356 77.971384,25.651505 C78.0192549,25.3325811 78.0082575,25.0110697 77.971384,24.6895582" id="Fill-3" fill="#D86C09"></path>
                    <path d="M62.6337342,16.5472963 L62.6376156,16.5440618 L62.6376156,8.10131284 L60.0668176,9.32719662 L56.0870619,13.0559534 L50.241634,13.6258762 L50.241634,14.4008676 L49.0623273,14.7534305 C47.7620495,15.1396324 46.7211804,15.3330568 45.9966475,15.3434073 C45.2721146,15.3544047 44.6407359,15.2043228 44.1206248,14.9035123 C43.3585715,14.4642642 43.1172762,13.9810267 43.3398113,13.444743 C43.5629933,12.9084592 44.2318924,12.3294798 45.2908748,11.7181552 C46.6099129,10.9561018 48.0408653,10.4094676 49.5824384,10.0769588 C50.0469158,9.98057004 50.363252,9.88353438 50.5113931,9.798143 C50.7902089,9.63706382 50.7345751,9.43328894 50.3444918,9.20816622 L49.4711709,8.70358081 C49.2111153,8.55349899 48.9510598,8.46810761 48.6910042,8.44611287 C48.4121884,8.41441455 48.0777389,8.4357624 47.6688953,8.49980593 C47.3719662,8.54314852 46.9999962,8.6285399 46.5542791,8.75727387 C46.108562,8.88600784 45.6628449,9.03608965 45.1977206,9.19716884 C44.7332433,9.37959588 44.2687659,9.56202291 43.7861753,9.77679516 C43.3216979,9.98057004 42.8753339,10.2160432 42.4671373,10.4521633 C41.6494501,10.9244035 40.9617908,11.428342 40.4416797,11.9859736 C39.9215686,12.5442521 39.6058792,13.0908863 39.4758514,13.6595152 C39.3270634,14.2171468 39.4014574,14.7747783 39.661513,15.311709 C39.9215686,15.8479927 40.4416797,16.3409338 41.2218463,16.7918262 C42.1883215,17.3494577 43.4142053,17.692964 44.8451577,17.8107006 C46.2942235,17.9394345 47.9289509,17.7246623 49.7124662,17.1883786 L50.241634,17.0279463 L50.241634,22.0576278 L50.248103,22.0576278 C50.2539252,22.1624263 50.3509608,22.2769283 50.5670269,22.4017809 L51.5147418,22.949062 C51.68229,23.0454507 51.9048251,23.1308421 52.1467674,23.1845352 C52.3880627,23.2382282 52.778146,23.2278778 53.2426234,23.1528369 C54.0046767,23.0344534 54.970505,22.7556376 56.1226417,22.3480878 C57.2741314,21.9405381 58.3518741,21.44695 59.3183493,20.8893185 C60.2654173,20.3420374 61.0087104,19.763058 61.5844553,19.1297386 C62.1420868,18.5294113 62.4952966,17.9394345 62.6065642,17.3384604 C62.6654325,17.0719358 62.668667,16.8086457 62.6337342,16.5472963" id="Fill-5" fill="#0F1A28"></path>
                    <g id="Group-9" transform="translate(0.000000, 30.650693)">
                        <mask id="mask-13" fill="white">
                            <use xlink:href="#path-12"></use>
                        </mask>
                        <g id="Clip-8"></g>
                        <path d="M18.0167396,11.187718 C18.6300049,10.8338613 19.1501161,10.4049637 19.5958332,9.89002778 C20.0415503,9.3750919 20.2278587,8.79546558 20.172225,8.18414095 C20.1159443,7.80893642 19.949043,7.45507972 19.6145934,7.13292135 C19.2801438,6.81140987 18.8156665,6.45755318 18.1842878,6.09269912 L17.4034743,5.64180677 C16.7345751,5.87792686 16.0475627,6.14639218 15.3786636,6.44655581 C14.7097645,6.74671944 14.0964991,7.05788044 13.5207542,7.39038929 C12.2761102,8.10910004 11.6072111,8.77411774 11.4952966,9.41778759 C11.3840291,10.0614574 11.7928726,10.6404369 12.7218273,11.1767206 C13.5951482,11.681306 14.4678222,11.9277766 15.3786636,11.9174261 C16.288858,11.9277766 17.1621789,11.681306 18.0167396,11.187718 L18.0167396,11.187718 Z M22.735907,5.2025587 C23.4235663,5.59911108 24.054945,5.87792686 24.5938164,6.03900605 C25.150801,6.18908787 25.7828266,6.33916968 26.5261197,6.46790365 C26.767415,6.50024887 26.9530766,6.5642924 27.0831044,6.63933331 C27.2694128,6.74671944 27.3431599,6.918796 27.2875262,7.16526657 L26.8974428,8.29152708 C26.841809,8.45260627 26.7305415,8.58134024 26.5817535,8.66673161 C26.3960919,8.77411774 26.1172762,8.8278108 25.7640664,8.83880818 C25.225195,8.8278108 24.7050839,8.78511511 24.2218463,8.72042468 C23.7204955,8.64538377 23.1816241,8.54899502 22.5502454,8.42026105 C22.810301,10.2438845 21.8438259,11.7886921 19.651467,13.0540371 C18.0911336,13.9551749 16.4001256,14.4164177 14.59785,14.427415 C12.7962213,14.4377655 11.1427337,14.0198653 9.65614749,13.1614232 C8.07705392,12.2499349 7.35252102,11.187718 7.51942235,9.97541916 C7.68697058,8.76376727 8.70843259,7.61551201 10.6226226,6.51124624 C11.2540013,6.14639218 11.959774,5.80288596 12.7405875,5.46002664 C13.5207542,5.11652042 14.3753149,4.79436204 15.2855093,4.46185319 L13.9295978,3.6790989 C12.5174055,2.86399939 11.2352411,2.46680011 10.0837513,2.46680011 C8.91285437,2.47779748 7.63133681,2.89634461 6.20038434,3.72179459 C5.55024544,4.09764603 4.95574032,4.52654363 4.43562921,5.02013167 C3.91551809,5.5130728 3.45104075,6.01765821 3.06031051,6.54294456 C2.89340919,6.79006203 2.74462118,6.96149169 2.65211386,7.05788044 C2.55895963,7.15426919 2.48456562,7.21895963 2.41017162,7.26165532 C2.15011606,7.41173713 1.83442673,7.38003882 1.44434339,7.15426919 L0.53414894,6.62898284 C0.236572929,6.45755318 0.0509113741,6.30682446 0.0133909205,6.1787374 C-0.0234826287,6.05000343 0.0133909205,5.87792686 0.143418699,5.65280414 C0.459754937,5.0841752 0.961105826,4.47285057 1.64876517,3.81883025 C2.31766429,3.15381255 3.17222497,2.53149055 4.19368697,1.94151376 C6.40480612,0.665171432 8.52277103,0.0215015816 10.5663419,0.000153737285 C12.5917995,-0.010843637 14.6353704,0.568135776 16.6789414,1.74808935 L22.6983865,5.22390654 L22.735907,5.2025587 Z" id="Fill-7" fill="#0F1A28" mask="url(#mask-13)"></path>
                    </g>
                    <polygon id="Fill-10" fill="#0F1A28" points="39.3999049 5.88488907 39.405727 14.3108185 44.2685072 16.1693748 49.7768979 16.1693748 54.2942311 14.7830587 60.2101716 12.1954412 60.0665588 9.32706724 59.565208 7.39282317 57.5209901 6.06408159 52.2506602 6.42246661 48.2353248 8.43045778 44.4696944 8.10183036 42.7495757 7.06807717"></polygon>
                    <polygon id="Fill-12" fill="#0F1A28" points="50.6830815 1.1540774 50.6830815 9.58582899 43.3588302 10.3485292 42.6420602 5.88488907 43.0903649 3.59031927 47.0701206 1.02663724 49.4539632 0.86555805"></polygon>
                    <polygon id="Fill-14" fill="#0F1A28" points="46.6099775 19.0220937 46.6099775 27.4538453 43.3948628 28.6758476 34.7541611 24.9762015 31.4555957 20.0467902 26.9738422 15.6433122 26.9738422 14.6334944 38.1963393 18.4935728 43.8968606 19.5810191"></polygon>
                    <polygon id="Fill-16" fill="#0F1A28" points="37.0974428 24.4927052 37.0974428 32.9244568 33.6429735 34.316595 27.4850908 32.0045588 17.9658929 28.8580159 13.067533 28.1328361 13.067533 19.6784429 15.6532098 18.8821036 22.7808022 20.265832 22.7542791 14.1739336 26.5438449 16.5441912 29.4477986 19.9035656 32.8362837 22.5655771"></polygon>
                    <polygon id="Fill-18" fill="#0F1A28" points="32.6013927 8.48861448 32.6013927 16.9203661 40.6340043 20.925351 42.7584383 19.7156399 43.2694928 17.8331481 37.9351193 10.8329959 34.4495985 8.48861448"></polygon>
                    <path d="M27.2876555,29.3840785 L27.2876555,37.8158301 L25.898105,38.6910917 L22.1337684,38.0454812 L21.6317706,39.4305034 L20.181411,41.8635108 L15.8296853,43.5674569 L11.8078808,43.1010389 L9.65627688,41.1292743 L7.51761102,41.2787092 L7.51761102,32.1942311 L4.06314167,34.3167244 L2.48598881,36.2930172 L0.0135203014,36.829301 L0.0135203014,28.3975494 C0.0135203014,28.3975494 2.3067963,26.6444385 2.41418243,26.6082119 C2.52156855,26.5726321 8.65292819,24.4210282 8.65292819,24.4210282 L11.4773127,24.0626432 L15.6440237,25.6760227 L20.4757525,27.8606187 L27.2876555,29.3840785 Z" id="Fill-20" fill="#0F1A28"></path>
                    <g id="Group-24">
                        <mask id="mask-15" fill="white">
                            <use xlink:href="#path-14"></use>
                        </mask>
                        <g id="Clip-23"></g>
                        <path d="M59.3180258,12.4574375 C58.3521976,13.0150691 57.2744549,13.5086571 56.1223182,13.9162069 C54.9708284,14.3237566 54.0043533,14.6025724 53.2429468,14.7209559 C52.7784695,14.7959968 52.3877393,14.8063473 52.1464439,14.7526542 C51.9051486,14.6996081 51.6819666,14.6135698 51.5150653,14.517181 L50.5673504,13.9698999 C50.177267,13.7447772 50.1397466,13.5513528 50.4185624,13.3909205 C50.5298299,13.3262301 50.6605046,13.272537 50.8086457,13.2298413 C50.9574337,13.1871456 51.198729,13.1334526 51.4587846,13.0687621 C52.3696259,12.8649873 53.2798204,12.5971688 54.1531413,12.26466 C55.0445755,11.9211538 55.8435024,11.5459492 56.5867955,11.1164047 C57.7576925,10.4410366 58.4634651,9.79736672 58.6866471,9.19639256 C58.9091822,8.5960653 58.6491267,8.05978157 57.8877202,7.6198866 C57.3669622,7.31907607 56.7724571,7.16899425 56.0854447,7.15864378 C55.3977853,7.14764641 54.4500704,7.33007344 53.2429468,7.68393013 L49.7127897,8.75649758 C47.9292743,9.29278131 46.2939001,9.50755356 44.8448343,9.37881959 C43.4145287,9.26108299 42.187998,8.91757677 41.2221698,8.3599452 C40.4420031,7.90969976 39.9212451,7.41611172 39.6611895,6.879828 C39.401134,6.34354427 39.32674,5.7852658 39.475528,5.22763423 C39.6055558,4.65900529 39.9212451,4.11237109 40.4420031,3.55409262 C40.9621142,2.99646105 41.6491267,2.49252255 42.4668138,2.02028235 C42.8756574,1.78416226 43.3213745,1.54868907 43.7858518,1.34491419 C44.2690894,1.13014194 44.7335667,0.947714905 45.1980441,0.765287872 C45.6625214,0.604855588 46.1082385,0.454126869 46.5546025,0.325392899 C47.0003196,0.196658929 47.3716428,0.111267552 47.6692188,0.0679249591 C48.0780623,0.00388142623 48.4125119,-0.0174664181 48.6906808,0.0148788006 C48.9507363,0.0362266448 49.2107919,0.121618022 49.4714943,0.271699836 L50.3441683,0.776285247 C50.7348986,1.00140797 50.7905324,1.20518285 50.5117166,1.36626203 C50.3629286,1.45165341 50.0472392,1.54868907 49.5827619,1.64507782 C48.0405419,1.97758667 46.6102363,2.52486777 45.2911983,3.28627421 C44.2322158,3.89759884 43.5633167,4.47657826 43.3401347,5.01286198 C43.1169527,5.54979261 43.3588949,6.03238327 44.1203014,6.47227824 C44.6404125,6.77244187 45.2724381,6.92252369 45.996971,6.91152631 C46.7215039,6.90117584 47.7617261,6.70775144 49.0626508,6.32154953 L52.5365273,5.2813273 C54.3019293,4.75604095 55.8622626,4.54126869 57.2000609,4.64865482 C58.5378591,4.75539404 59.6893489,5.09890026 60.655824,5.65653183 C61.4547509,6.11777465 62.0117356,6.63271053 62.3280718,7.17999163 C62.625001,7.7376232 62.7369154,8.31724951 62.6062407,8.9072263 C62.4949732,9.50755356 62.1417634,10.0975303 61.5847787,10.6985045 C61.0090338,11.331177 60.2657407,11.9101564 59.3180258,12.4574375 L59.3180258,12.4574375 Z M34.9420221,25.9518627 C34.6075726,26.1446402 34.3294037,26.241029 34.0505879,26.2520263 C33.7905324,26.2733742 33.400449,26.1983333 32.9359717,26.0586019 L14.2080901,20.2882149 C13.7248525,20.1374862 13.4279234,20.030747 13.2978957,19.9557061 C13.0003196,19.7836295 12.9815594,19.6012025 13.2791354,19.4297728 L15.1001712,18.3785532 C15.4527341,18.1747783 15.7503101,18.0673922 16.0103657,18.0673922 C16.2704212,18.0460444 16.6417444,18.1320827 17.1062217,18.2711671 L32.5271281,23.5699608 L23.1263138,14.7959968 C22.847498,14.5275315 22.7174702,14.3237566 22.7543438,14.1736748 C22.7918642,14.023593 22.9775258,13.8308155 23.3119753,13.6373911 L24.7979147,12.7795959 C25.1511245,12.5751741 25.4487005,12.4684349 25.7268694,12.4574375 C25.9869249,12.4360897 26.3776552,12.5111306 26.804612,12.6722097 L42.187998,18.163781 L32.954085,9.12135165 C32.6940295,8.84253587 32.5827619,8.62776361 32.6015221,8.48867917 C32.6383957,8.33859736 32.8059439,8.15617033 33.1403935,7.96274592 L34.868275,6.96521938 C35.1652042,6.79378972 35.4808935,6.78279234 35.7972297,6.96521938 C35.8897371,7.01891244 35.9641311,7.08360288 36.0572853,7.15864378 C36.1497926,7.23368469 36.2617071,7.34107082 36.3917348,7.5015031 L46.2757867,18.3785532 C46.5358423,18.657369 46.6471099,18.8721413 46.6102363,19.0222231 C46.5727159,19.1723049 46.4058145,19.3547319 46.0894783,19.5371589 L44.4916245,20.4596446 C44.1390616,20.6634195 43.8414856,20.7708056 43.5626698,20.7811561 C43.2845009,20.7921534 42.9125309,20.727463 42.4668138,20.5560333 L27.6035389,15.2999353 L36.7074242,23.859774 C36.98624,24.1282393 37.1162677,24.3320142 37.0975075,24.4924464 C37.0787473,24.6535256 36.8743255,24.8359527 36.5398759,25.0293771 L34.9420221,25.9518627 Z M18.0164161,33.4067887 C18.6296815,33.052932 19.1497926,32.6233875 19.5961566,32.1084516 C20.0418737,31.5935157 20.2275353,31.0145363 20.1719015,30.4032117 C20.1162677,30.0280072 19.9487195,29.6735036 19.6142699,29.3519921 C19.2798204,29.0298337 18.815343,28.675977 18.1839644,28.3111229 L17.4037977,27.8608775 C16.7348986,28.0969976 16.0472392,28.364816 15.3783401,28.6656265 C14.709441,28.9657902 14.0968226,29.2769512 13.5204308,29.60946 C12.2757867,30.3281708 11.6068876,30.9931885 11.4956201,31.6368583 C11.3837056,32.2805282 11.7925492,32.8595076 12.7215039,33.3957913 C13.5948248,33.8997298 14.4681457,34.1468473 15.3783401,34.1358499 C16.2885346,34.1468473 17.1618555,33.8997298 18.0164161,33.4067887 L18.0164161,33.4067887 Z M22.7355835,27.4209825 C23.4232429,27.8181818 24.0546216,28.0969976 24.5934929,28.2580768 C25.1511245,28.4081586 25.7825031,28.5582404 26.5257963,28.6869744 C26.7677385,28.7193196 26.9534001,28.7833631 27.0834278,28.858404 C27.2690894,28.9657902 27.3434834,29.1372198 27.2878496,29.3843373 L26.8977663,30.5105978 C26.8414856,30.6710301 26.730218,30.7997641 26.58143,30.8858024 C26.3957685,30.9931885 26.1169527,31.0468815 25.7643898,31.057232 C25.2255185,31.0468815 24.7054074,31.0035389 24.2221698,30.9394954 C23.720172,30.8644545 23.1819476,30.7680658 22.549922,30.6393318 C22.8099775,32.4629552 21.8441493,34.0071159 19.6517904,35.2731078 C18.0908102,36.1742456 16.400449,36.6354884 14.5981734,36.6458389 C12.7958979,36.6568363 11.1424103,36.2382891 9.65582404,35.3804939 C8.07673047,34.4683588 7.35219757,33.4067887 7.5197458,32.1944899 C7.68664713,30.9821911 8.70875604,29.8345827 10.6222992,28.7296701 C11.2536778,28.364816 11.9600974,28.0219567 12.7402641,27.6784505 C13.5204308,27.3355912 14.3749914,27.0134328 15.2858328,26.6809239 L13.9292743,25.8981696 C12.5170821,25.0824232 11.2355645,24.6858708 10.0834278,24.6858708 C8.91317782,24.6968682 7.63101336,25.1147684 6.20070779,25.9408653 C5.54992199,26.3160699 4.95541687,26.7456144 4.43530576,27.2385555 C3.91519464,27.7321435 3.4507173,28.236082 3.06063397,28.7620153 C2.89308573,29.0084859 2.74494463,29.1805624 2.6517904,29.2769512 C2.55863617,29.3733399 2.48488907,29.4380304 2.41049507,29.4807261 C2.15043951,29.6308079 1.83410328,29.5984627 1.44401994,29.3733399 L0.533825488,28.8480536 C0.236896381,28.675977 0.0505879219,28.5258952 0.0137143727,28.3971612 C-0.0238060809,28.2684273 0.0137143727,28.0969976 0.143742152,27.8718749 C0.459431485,27.3032459 0.961429278,26.6919213 1.64844172,26.0372541 C2.31734084,25.3722364 3.17190152,24.7505613 4.19401043,24.1605845 C6.40512957,22.8835953 8.52309449,22.2399254 10.5666654,22.2184412 C12.5914761,22.2082271 14.635047,22.7872065 16.6792648,23.9671601 L22.69871,27.4423304 L22.7355835,27.4209825 Z" id="Fill-22" fill="#58595B" mask="url(#mask-15)"></path>
                    </g>
                    <g id="Group-27" transform="translate(17.058286, 15.643118)">
                        <mask id="mask-17" fill="white">
                            <use xlink:href="#path-16"></use>
                        </mask>
                        <g id="Clip-26"></g>
                        <path d="M54.8005632,8.10377107 L54.8005632,0 L51.7659348,2.62707866 L43.396286,12.2180829 L38.0030443,16.133795 L28.7037939,20.6498345 L15.8711519,24.5034438 L0,26.6414628 L0,34.9179573 L0.0174664181,34.9160166 C-0.0316983142,35.1443738 0.285931733,35.3746718 0.921191826,35.3559116 C14.781118,34.9483618 28.3809886,31.665969 39.0827277,25.4873854 C46.7187869,21.0787321 53.2027094,14.5676396 54.8005632,8.43175159 C54.8322615,8.30948666 54.829027,8.20080673 54.8005632,8.10377107" id="Fill-25" fill="#D86C09" mask="url(#mask-17)"></path>
                    </g>
                    <g id="Group-30" transform="translate(17.058559, 9.838330)">
                        <mask id="mask-19" fill="white">
                            <use xlink:href="#path-18"></use>
                        </mask>
                        <g id="Clip-29"></g>
                        <path d="M54.4473391,2.66193301 C52.6638237,2.53319904 48.799217,5.36534638 47.0525752,6.65203917 C46.5324641,7.03824108 45.9198456,6.79177052 46.0679867,6.25548679 C47.1088559,2.82301219 53.5552579,-0.0841760547 55.0418442,0.00186222683 C56.5465437,0.0982509783 61.4332594,3.90593011 60.9131483,7.38174731 C60.8387543,7.91803103 60.1323347,8.06811285 59.7978851,7.6178674 C58.7020291,6.12675282 56.2120942,2.7796696 54.4473391,2.66193301 M54.8005488,5.80459445 C53.202695,11.9404824 46.7181256,18.4515749 39.0820664,22.8602282 C28.3809743,29.0388119 14.7811037,32.3212047 0.92117748,32.7287544 C-0.175325431,32.7610996 -0.360986986,32.0527394 0.734869021,31.8923071 C13.1832499,29.9826454 25.6685042,25.9711913 35.7194575,20.1678122 C42.500956,16.252747 48.5391614,11.1357334 52.4962755,5.50443082 C53.053907,4.64663562 55.0606044,4.79671743 54.8005488,5.80459445" id="Fill-28" fill="#F09D38" mask="url(#mask-19)"></path>
                    </g>
                </g>
                <g id="lambda" transform="translate(127.999574, 350.000000)">
                    <polygon id="Fill-1" fill="#148F9A" points="69.5212606 10.2642147 69.5212606 23.9328869 72.9677963 21.9580552 73.4321366 12.3465429"></polygon>
                    <path d="M69.5212606,23.9328869 C69.5212606,23.9328869 75.3482331,27.2475454 70.4831876,30.0557516 C65.9339822,32.6833195 57.8252037,29.8075124 56.1462643,29.2356756 C54.4673249,28.6638389 24.7772491,17.8609999 21.3163067,16.6331023 C18.8616197,15.7631568 7.39274603,11.7769225 2.22626722,14.7591178 C-2.94021159,17.7424213 1.9059943,23.1349751 6.44079294,25.7525691 C6.44079294,25.7525691 7.18107777,25.3259079 7.64874273,25.0555045 C6.50063633,24.3916862 1.70651635,21.0459977 6.62586415,18.2056534 C6.93394676,18.0283397 7.25421968,17.8754066 7.58668293,17.7435295 C12.5714152,15.7753471 20.0751106,18.7697327 21.9125241,19.4568234 C22.3812973,19.6330289 24.3051512,20.3212279 27.005861,21.2864795 L27.005861,21.2864795 L45.4121344,50.0002216 L52.2431458,46.0560994 L38.26085,25.3070683 C45.6193698,27.9379608 53.0488151,30.6054242 54.861848,31.3113545 C58.573246,32.7564614 68.5648747,37.1693569 75.2108149,33.332731 C81.8567552,29.4961052 70.8256248,23.1793035 70.8256248,23.1793035 L69.5212606,23.9328869 Z" id="Fill-2" fill="#000000"></path>
                    <polygon id="Fill-5" fill="#08AEB0" points="52.2428134 32.3872056 52.2428134 46.0558777 45.4118019 50 45.4118019 36.3313278"></polygon>
                    <polygon id="Fill-7" fill="#26AFCC" points="7.64874273 11.3866106 7.64874273 25.0552828 6.44079294 25.7534556 6.44079294 12.0847835"></polygon>
                    <path d="M6.44034966,25.7530123 C5.2046946,25.0393246 3.94687533,24.1206178 2.87301905,23.0999557 C1.19518788,21.5041321 -0.0293850652,19.6600693 0.000536626782,17.9700478 L0.000536626782,18.1662011 L0.000536626782,4.30137563 C-0.0293850652,5.99139712 1.19518788,7.83545992 2.87301905,9.43128349 C3.94687533,10.4519456 5.2046946,11.3706524 6.44034966,12.0843402 L6.44034966,25.7530123 Z" id="Fill-9" fill="#148F9A"></path>
                    <path d="M27.0057502,21.2865903 C24.3050404,20.3213387 22.3822947,19.6320316 21.9124133,19.4569342 C20.076108,18.7698435 12.5713043,15.7754579 7.5865721,17.7436403 L7.64863191,11.3869431 C6.50052551,10.7231248 1.70640553,7.37743639 6.62575333,4.53709207 C11.5462093,1.69674776 19.9530966,5.05573474 21.9124133,5.78826208 C22.3822947,5.96335939 24.3050404,6.65266652 27.0057502,7.61791813 L27.0057502,21.2865903 Z" id="Fill-12" fill="#08AEB0"></path>
                    <path d="M77.3382472,30.27418 C77.3847921,31.3613348 76.8085225,32.4263254 75.2115907,33.349465 C68.5645422,37.1860908 58.5729135,32.7731954 54.8615155,31.3280885 C53.0495909,30.6221582 45.6190374,27.9546948 38.2616258,25.3238023 L38.2616258,25.3459665 L38.2616258,11.638507 C45.6190374,14.2693994 53.0495909,16.9368629 54.8615155,17.6427931 C58.5729135,19.0879 68.5645422,23.5007955 75.2115907,19.6641697 C76.8085225,18.7410301 77.3847921,17.6760395 77.3382472,16.5888847 L77.3382472,30.3085345 L77.3382472,30.27418 Z" id="Fill-14" fill="#08AEB0"></path>
                    <path d="M69.5212606,10.2642147 C69.5212606,10.2642147 75.3482331,13.5788733 70.4831876,16.3870795 C65.9339822,19.0146473 57.8252037,16.1388403 56.1462643,15.5670035 C54.4673249,14.9951667 24.7772491,4.19232769 21.3163067,2.96443011 C18.8616197,2.09448462 7.39274603,-1.89174967 2.22626722,1.09044563 C-2.94021159,4.07374913 1.9059943,9.46630295 6.44079294,12.0838969 C6.44079294,12.0838969 7.18107777,11.6572357 7.64874273,11.3868323 C6.50063633,10.723014 1.70651635,7.37732557 6.62586415,4.53698125 C11.5463202,1.69663694 19.9532074,5.05562391 21.9125241,5.78815126 C22.3812973,5.96435678 24.3051512,6.6525557 27.005861,7.61780731 L27.005861,7.61780731 L45.4121344,36.3315495 L52.2431458,32.3874272 L38.26085,11.6383961 C45.6193698,14.2692886 53.0488151,16.936752 54.861848,17.6426823 C58.573246,19.0877892 68.5648747,23.5006847 75.2108149,19.6640588 C81.8567552,15.827433 70.8256248,9.51063138 70.8256248,9.51063138 L69.5212606,10.2642147 Z" id="Fill-16" fill="#7CF6D5"></path>
                    <polygon id="Fill-19" fill="#148F9A" points="45.4116911 36.331217 45.4116911 49.9998892 27.0054177 21.286147 27.0054177 7.61747485"></polygon>
                </g>
            </g>
        </g>
    </g>
</svg>