<?xml version="1.0" encoding="UTF-8"?>
<svg width="42px" height="42px" viewBox="0 0 42 42" version="1.1" xmlns="http://www.w3.org/2000/svg" xmlns:xlink="http://www.w3.org/1999/xlink">
    <title>Group 19</title>
    <g id="Design" stroke="none" stroke-width="1" fill="none" fill-rule="evenodd">
        <g id="Home" transform="translate(-766.000000, -1499.000000)">
            <g id="Group-19" transform="translate(766.000000, 1499.000000)">
                <rect id="Rectangle" fill="#00C9AF" x="0" y="0" width="42" height="42" rx="4"></rect>
                <g id="Group-7" transform="translate(7.000000, 6.000000)">
                    <polygon id="Fill-1" fill="#FFFFFF" points="1.63412149 8.79319716 1.63412149 23.2355841 0 23.2355841 0 23.9326445 1.63412149 23.9326445 1.63412149 30.0006 6.79060421 30.0006 6.79060421 23.9326445 8.32325488 23.9326445 8.32325488 23.2355841 6.79060421 23.2355841 6.79060421 8.79319716"></polygon>
                    <polygon id="Fill-2" fill="#7EF0E2" points="1.63394502 23.2350547 6.79042774 23.2350547 6.79042774 8.79266775 1.63394502 8.79266775"></polygon>
                    <polygon id="Fill-3" fill="#FFFFFF" points="11.7694689 4.40886331 11.7694689 13.618885 10.1847593 13.618885 10.1847593 14.3035925 11.7694689 14.3035925 11.7694689 29.9998059 16.9259516 29.9998059 16.9259516 14.3035925 18.4965435 14.3035925 18.4965435 13.618885 16.9259516 13.618885 16.9259516 4.40886331"></polygon>
                    <polygon id="Fill-4" fill="#7EF0E2" points="11.7686747 13.6191497 16.9251575 13.6191497 16.9251575 4.40912802 11.7686747 4.40912802"></polygon>
                    <polygon id="Fill-5" fill="#FFFFFF" points="21.6379921 0.000705884014 21.6379921 5.37248323 20.0797531 5.37248323 20.0797531 6.06954369 21.6379921 6.06954369 21.6379921 29.9998941 26.7944748 29.9998941 26.7944748 6.06954369 28.390655 6.06954369 28.390655 5.37248323 26.7944748 5.37248323 26.7944748 0.000705884014"></polygon>
                    <polygon id="Fill-6" fill="#7EF0E2" points="21.6378156 5.37177735 26.7942983 5.37177735 26.7942983 0 21.6378156 0"></polygon>
                </g>
            </g>
        </g>
    </g>
</svg>